PathFileType	4	(X/Y/Z)	Run_200 02
DataRate	CameraRate	NumFrames	NumMarkers	Units	OrigDataRate	OrigDataStartFrame	OrigNumFrames
100	100	4	45	mm	100	58	137
Frame#	Time	RASI			LPSI			RTH1			RTH2			RTH3			LTH1			LTH2			LTH3			RTB1			RTB2			RTB3			RLMAL			RMMAL			LTB1			LTB2			LTB3			RCAL			RTOE			RMT5			LCAL			LTOE			LMT5			LACR			RACR			CLAV			C7			LPSH			RUA1			RUA2			RUA3			RLEL			RMEL			LUA1			LUA2			LUA3			LLEL			LMEL			RFAsuperior			RFAradius			LFAsuperior			LFAradius			LFAulna			LASI			RFAulna			RPSI			
		X1	Y1	Z1	X2	Y2	Z2	X3	Y3	Z3	X4	Y4	Z4	X5	Y5	Z5	X6	Y6	Z6	X7	Y7	Z7	X8	Y8	Z8	X9	Y9	Z9	X10	Y10	Z10	X11	Y11	Z11	X12	Y12	Z12	X13	Y13	Z13	X14	Y14	Z14	X15	Y15	Z15	X16	Y16	Z16	X17	Y17	Z17	X18	Y18	Z18	X19	Y19	Z19	X20	Y20	Z20	X21	Y21	Z21	X22	Y22	Z22	X23	Y23	Z23	X24	Y24	Z24	X25	Y25	Z25	X26	Y26	Z26	X27	Y27	Z27	X28	Y28	Z28	X29	Y29	Z29	X30	Y30	Z30	X31	Y31	Z31	X32	Y32	Z32	X33	Y33	Z33	X34	Y34	Z34	X35	Y35	Z35	X36	Y36	Z36	X37	Y37	Z37	X38	Y38	Z38	X39	Y39	Z39	X40	Y40	Z40	X41	Y41	Z41	X42	Y42	Z42	X43	Y43	Z43	X44	Y44	Z44	X45	Y45	Z45	

55	0.74	1030.274536	1037.004762	-395.949527	854.431254	1073.33827	-553.19737	999.406035	774.899621	-355.386084	1094.407075	729.520805	-379.572956	1056.009492	615.773252	-381.225779	934.403829	822.434124	-687.664619	1020.522536	721.244372	-685.30051	980.20114	616.378594	-671.249264	1026.777977	403.154202	-410.870667	957.561734	404.66177	-366.909247	874.966392	303.632392	-395.364327	761.433235	267.489319	-370.902633	792.663347	250.309734	-449.048927	1002.666686	380.345373	-633.111569	887.899913	313.562611	-657.295813	911.791366	211.463569	-607.671524	705.330475	283.01529	-439.129946	834.917156	109.867813	-385.60135	776.544892	157.841072	-322.730152	754.26729	93.21468400000001	-556.667537	983.745019	70.01213300000001	-576.5284799999999	920.903218	53.536802	-643.870908	1008.524721	1524.63898	-704.564408	1010.477211	1524.650252	-384.899358	1074.105153	1453.692386	-517.0325319999999	974.378837	1559.558943	-546.710453	926.341891	1487.70543	-712.054205	943.933557	1392.120308	-283.204799	856.169858	1355.588082	-294.354002	855.466143	1305.961209	-241.709088	855.785082	1239.189427	-208.13452	818.238033	1226.38941	-287.04148	924.680463	1390.271425	-762.041954	860.640039	1313.83432	-728.13135	871.854963	1262.986712	-782.658752	874.218029	1185.77545	-799.388075	852.810011	1179.557447	-711.561868	870.598223	1155.240901	-213.437226	1010.443099	1038.617599	-297.920144	947.894004	1131.721553	-763.141084	1106.876032	1186.95838	-715.691425	1107.045365	1118.297001	-724.5017309999999	1018.892816	1040.071735	-632.803866	978.370217	1003.29948	-250.879068	858.450622	1066.691853	-464.884191	
56	0.75	1030.377799	1040.827354	-396.191718	855.3716920000001	1076.720333	-553.633044	1002.747735	779.912565	-354.300192	1098.826324	737.059332	-377.558513	1063.389041	622.3039680000001	-379.291851	930.203955	825.3162160000001	-687.473405	1012.919108	721.687043	-684.693948	968.9321629999999	618.003473	-671.268362	1041.853849	407.485256	-409.341236	972.709057	405.289228	-365.403461	894.8882610000001	300.946564	-394.370197	783.295381	258.468137	-370.523168	815.641304	243.467629	-448.202453	985.991956	380.906292	-633.414907	870.313307	315.610518	-657.049228	893.690738	213.030025	-608.1678900000001	726.050123	271.840694	-438.303452	865.325697	105.591279	-386.696338	804.187983	149.314237	-323.184495	734.806229	95.15842600000001	-556.6488000000001	963.980494	69.86287299999999	-576.667597	901.056517	53.859734	-644.127393	1011.431925	1529.223034	-703.778486	1007.885442	1528.165284	-384.881535	1073.955285	1457.461931	-515.9960610000001	974.532915	1562.968357	-546.816006	929.250795	1492.124402	-713.529107	937.083351	1398.831966	-282.154926	849.026024	1363.436948	-294.909099	846.403862	1315.307966	-240.83806	844.741046	1249.091347	-206.119416	807.806954	1235.753653	-285.119867	930.832428	1393.9278	-763.063884	866.259451	1317.108674	-731.0367680000001	880.667851	1265.277543	-783.2943320000001	884.492581	1187.963418	-798.541622	860.910538	1182.731841	-710.814726	858.269713	1165.209322	-210.079493	998.112335	1045.982029	-290.842395	959.517694	1138.407178	-759.483764	1114.48203	1202.570707	-709.737247	1118.143643	1133.821815	-715.710071	1019.874855	1042.379153	-632.62104	964.262284	1011.142299	-244.674185	858.391896	1070.370996	-464.839568	
57	0.76	1030.577933	1045.081727	-396.176305	856.243905	1080.679213	-553.862903	1005.953283	785.665644	-352.335314	1102.740845	744.873422	-375.255595	1069.921799	629.175511	-377.245302	925.808051	828.742963	-687.1459630000001	1005.111483	722.771211	-683.959608	957.48041	620.494536	-671.291274	1056.496897	411.918112	-407.870064	987.484508	405.769613	-363.754686	915.099996	297.809027	-393.449823	805.961188	248.741699	-370.080795	839.00143	236.330967	-447.382258	969.132153	382.407404	-633.872604	852.505086	318.456835	-656.756445	875.792603	215.453024	-608.841876	747.90917	259.61012	-437.502635	896.957316	101.402335	-387.382635	832.8491299999999	140.390525	-323.680042	716.208309	98.452552	-557.189349	944.277833	69.708754	-576.629192	881.322891	54.252828	-644.277507	1013.688871	1534.61712	-702.621168	1005.330903	1532.55514	-384.732416	1073.897514	1461.82161	-514.706458	974.79792	1566.87296	-546.501043	931.585383	1497.258366	-714.029667	930.344859	1406.823552	-281.240641	842.14447	1372.681058	-295.320303	837.726935	1325.822728	-240.125237	833.726718	1260.11443	-204.608634	797.284227	1246.755825	-283.594982	935.444969	1398.484122	-763.461142	871.404031	1320.629043	-734.373633	889.850106	1268.128502	-783.997497	894.696654	1191.042822	-797.5290230000001	868.2187269999999	1187.074013	-710.050901	845.954025	1176.366649	-207.602107	986.721774	1055.718877	-284.402444	970.584918	1146.365258	-755.223624	1120.686218	1219.488299	-703.071694	1127.826116	1150.892689	-706.277801	1020.68058	1044.926071	-632.568448	950.567878	1020.721254	-240.116282	858.8710150000001	1074.515354	-465.120037	
58	0.77	1030.947703	1049.67149	-395.978093	857.300737	1085.154864	-554.0201049999999	1009.086454	791.909859	-349.909463	1106.386584	752.73552	-372.938451	1075.573423	636.303406	-375.009932	921.255315	832.792587	-686.67074	997.16909	724.548887	-683.180976	945.897685	623.800792	-671.119447	1070.630624	416.329428	-406.436862	1001.861221	406.069135	-361.975098	935.6919810000001	294.327443	-392.504915	829.4690399999999	238.522285	-369.622273	862.90458	229.07993	-446.805324	952.393796	384.874288	-634.467102	834.923288	322.096184	-656.548483	858.193982	218.675182	-609.541632	771.031517	246.435633	-436.818043	929.639211	97.464866	-387.682873	862.688538	131.480017	-324.070362	698.352489	103.479515	-558.190571	924.6015609999999	69.643207	-576.424771	861.667625	54.637289	-644.26095	1015.391497	1540.739195	-701.346816	1002.911166	1537.702895	-384.423345	1073.943096	1466.668261	-513.183279	975.144985	1571.19573	-545.928807	933.529807	1502.837083	-713.799656	924.062619	1415.724379	-280.582921	835.810845	1383.071485	-295.719677	829.56709	1337.11395	-239.837362	822.997329	1271.925254	-203.828006	787.358643	1258.8033	-282.981403	939.139779	1403.610532	-763.592836	876.508435	1324.387187	-737.217681	898.7245	1271.601099	-784.443974	904.445021	1194.775417	-796.437774	874.900815	1192.100364	-709.3997460000001	834.022458	1188.330578	-206.051999	976.208493	1066.826418	-278.421098	980.743264	1155.159385	-750.4877770000001	1125.334086	1237.054846	-696.060894	1135.845627	1168.844746	-696.6011549999999	1021.461809	1047.744264	-632.437963	937.467878	1031.350677	-236.67346	860.032506	1079.107682	-465.646135	
